Coordinates
version=1
nRows=11
nColumns=40
inDegrees=yes
endheader
time	pelvis_tilt	pelvis_list	pelvis_rotation	pelvis_tx	pelvis_ty	pelvis_tz	hip_flexion_r	hip_adduction_r	hip_rotation_r	knee_angle_r	knee_angle_r_beta	ankle_angle_r	subtalar_angle_r	mtp_angle_r	hip_flexion_l	hip_adduction_l	hip_rotation_l	knee_angle_l	knee_angle_l_beta	ankle_angle_l	subtalar_angle_l	mtp_angle_l	lumbar_extension	lumbar_bending	lumbar_rotation	arm_flex_r	arm_add_r	arm_rot_r	elbow_flex_r	pro_sup_r	wrist_flex_r	wrist_dev_r	arm_flex_l	arm_add_l	arm_rot_l	elbow_flex_l	pro_sup_l	wrist_flex_l	wrist_dev_l
1760625116.46900010	      0.12471102	     -0.14559168	      2.59271592	      0.00175871	      0.94519800	     -0.00255584	     80.00000000	     -7.00000000	      0.00000000	     80.00000000	      1.39626340	      0.00000000	      0.00000000	      0.00000000	     80.00000000	     -7.00000000	      0.00000000	     80.00000000	      1.39626340	      0.00000000	      0.00000000	      0.00000000	     -2.10724059	     -1.25114760	      1.76099182	      4.11831655	    -11.90873026	     -2.38486962	     16.75036340	      9.39741322	     -6.36814098	     10.51964988	      3.58495179	     -1.82737181	     -2.86606328	      0.00000000	      0.00000000	      6.99450443	      9.37147711
1760625116.50200009	      0.13410500	     -0.13907705	      2.59579348	      0.00149029	      0.94557257	     -0.00223952	     80.00000000	     -7.00000000	      0.00000000	     80.00000000	      1.39626340	      0.00000000	      0.00000000	      0.00000000	     80.00000000	     -7.00000000	      0.00000000	     80.00000000	      1.39626340	      0.00000000	      0.00000000	      0.00000000	     -2.08266671	     -1.26407690	      1.79653584	      4.15358594	    -11.90397340	     -2.38810549	     16.75513235	      9.38516505	     -6.37273780	     10.51052434	      3.59177099	     -1.79289563	     -2.91116982	      0.00000000	      0.00000000	      7.05923344	      9.39459633
1760625116.53600001	      0.13186786	     -0.14111770	      2.60517496	      0.00012382	      0.94601841	     -0.00245938	     80.00000000	     -7.00000000	      0.00000000	     80.00000000	      1.39626340	      0.00000000	      0.00000000	      0.00000000	     80.00000000	     -7.00000000	      0.00000000	     80.00000000	      1.39626340	      0.00000000	      0.00000000	      0.00000000	     -1.95645803	     -1.23844636	      1.76072994	      4.02394934	    -11.87718957	     -2.20766567	     16.65933030	      9.11896440	     -6.25230982	     10.35429197	      3.46075650	     -1.74106809	     -2.73717355	      0.00000000	      0.00000000	      6.97330731	      9.33304358
1760625116.56900001	      0.14324613	     -0.14102177	      2.59332515	     -0.00034476	      0.94604891	     -0.00269038	     80.00000000	     -7.00000000	      0.00000000	     80.00000000	      1.39626340	      0.00000000	      0.00000000	      0.00000000	     80.00000000	     -7.00000000	      0.00000000	     80.00000000	      1.39626340	      0.00000000	      0.00000000	      0.00000000	     -1.92859887	     -1.20211216	      1.76221084	      4.06446656	    -11.91787771	     -2.04552940	     16.47130242	      9.04045347	     -6.13554434	     10.39993126	      3.42346409	     -1.67677914	     -2.63233768	      0.00000000	      0.00000000	      6.97200665	      9.33776423
1760625116.60299993	      0.15271178	     -0.13548617	      2.59435033	     -0.00047020	      0.94608642	     -0.00252785	     80.00000000	     -7.00000000	      0.00000000	     80.00000000	      1.39626340	      0.00000000	      0.00000000	      0.00000000	     80.00000000	     -7.00000000	      0.00000000	     80.00000000	      1.39626340	      0.00000000	      0.00000000	      0.00000000	     -1.88288334	     -1.20244635	      1.75075366	      4.09502870	    -11.89830423	     -1.88406584	     16.25374510	      9.03834167	     -6.05102100	     10.49639206	      3.36668636	     -1.63563322	     -2.56149290	      0.00000000	      0.00000000	      6.95239847	      9.38422931
1760625116.63599992	      0.15400883	     -0.13654791	      2.58995465	     -0.00028467	      0.94609990	     -0.00246512	     80.00000000	     -7.00000000	      0.00000000	     80.00000000	      1.39626340	      0.00000000	      0.00000000	      0.00000000	     80.00000000	     -7.00000000	      0.00000000	     80.00000000	      1.39626340	      0.00000000	      0.00000000	      0.00000000	     -1.82567758	     -1.22772933	      1.76394195	      4.12378462	    -11.85895531	     -1.81856349	     16.15448625	      8.88573828	     -6.08930231	     10.53225413	      3.29824963	     -1.60462168	     -2.45885293	      0.00000000	      0.00000000	      6.89001817	      9.37578084
1760625116.67000008	      0.15939478	     -0.13568881	      2.58536613	      0.00026054	      0.94589115	     -0.00258093	     80.00000000	     -7.00000000	      0.00000000	     80.00000000	      1.39626340	      0.00000000	      0.00000000	      0.00000000	     80.00000000	     -7.00000000	      0.00000000	     80.00000000	      1.39626340	      0.00000000	      0.00000000	      0.00000000	     -1.83201973	     -1.22481569	      1.76280158	      4.26764044	    -11.85731671	     -1.76596162	     16.15354172	      8.79833132	     -6.17900742	     10.53636402	      3.28599929	     -1.57327804	     -2.34253534	      0.00000000	      0.00000000	      6.86836043	      9.40198297
1760625116.70300007	      0.17066907	     -0.13456916	      2.58037945	     -0.00048493	      0.94568451	     -0.00271328	     80.00000000	     -7.00000000	      0.00000000	     80.00000000	      1.39626340	      0.00000000	      0.00000000	      0.00000000	     80.00000000	     -7.00000000	      0.00000000	     80.00000000	      1.39626340	      0.00000000	      0.00000000	      0.00000000	     -1.71074019	     -1.20289815	      1.75721037	      4.13765813	    -11.84593840	     -1.70772948	     16.10052141	      8.83717005	     -6.10284335	     10.53489308	      3.14882991	     -1.51972360	     -2.31652475	      0.00000000	      0.00000000	      6.89134424	      9.43635486
1760625116.73699999	      0.18038622	     -0.13645965	      2.58789765	     -0.00079075	      0.94527829	     -0.00276324	     80.00000000	     -7.00000000	      0.00000000	     80.00000000	      1.39626340	      0.00000000	      0.00000000	      0.00000000	     80.00000000	     -7.00000000	      0.00000000	     80.00000000	      1.39626340	      0.00000000	      0.00000000	      0.00000000	     -1.70158177	     -1.19490348	      1.70215171	      4.18106552	    -11.84583505	     -1.65996794	     16.10251769	      8.87725828	     -6.11032880	     10.51801914	      3.11401596	     -1.53883767	     -2.13192418	      0.00000000	      0.00000000	      6.83329611	      9.46430409
1760625116.76999998	      0.17979518	     -0.13860602	      2.57935090	     -0.00204080	      0.94508372	     -0.00243612	     80.00000000	     -7.00000000	      0.00000000	     80.00000000	      1.39626340	      0.00000000	      0.00000000	      0.00000000	     80.00000000	     -7.00000000	      0.00000000	     80.00000000	      1.39626340	      0.00000000	      0.00000000	      0.00000000	     -1.66731506	     -1.21841037	      1.75467249	      4.12907253	    -11.77931220	     -1.71019390	     15.84711143	      9.08200155	     -5.86244404	     10.49319020	      3.09654897	     -1.59131822	     -1.98926879	      0.00000000	      0.00000000	      6.81960605	      9.47948708
1760625116.80399990	      0.18927596	     -0.14385576	      2.58515761	     -0.00241439	      0.94491489	     -0.00243025	     80.00000000	     -7.00000000	      0.00000000	     80.00000000	      1.39626340	      0.00000000	      0.00000000	      0.00000000	     80.00000000	     -7.00000000	      0.00000000	     80.00000000	      1.39626340	      0.00000000	      0.00000000	      0.00000000	     -1.68618034	     -1.20099494	      1.72273373	      4.17110817	    -11.82842921	     -1.62444486	     15.83681239	      9.17631362	     -5.83477392	     10.54486959	      3.14284150	     -1.61231800	     -2.05984513	      0.00000000	      0.00000000	      6.79411626	      9.49026465
